<mxfile host="app.diagrams.net" modified="2022-01-20T14:43:00.966Z" agent="5.0 (Windows NT 10.0; Win64; x64) AppleWebKit/537.36 (KHTML, like Gecko) Chrome/97.0.4692.71 Safari/537.36" etag="mQlkkYpgopxKQGhkeCk2" version="16.4.3" type="github">
  <diagram id="czbyRJZMBvkC25U0a2x8" name="Page-1">
    <mxGraphModel dx="1902" dy="685" grid="0" gridSize="10" guides="1" tooltips="1" connect="1" arrows="1" fold="1" page="0" pageScale="1" pageWidth="827" pageHeight="1169" math="0" shadow="0">
      <root>
        <mxCell id="0" />
        <mxCell id="1" parent="0" />
        <mxCell id="2np6UyLigP0ldmkxChUn-7" value="Customer" style="shape=table;startSize=30;container=1;collapsible=1;childLayout=tableLayout;fixedRows=1;rowLines=0;fontStyle=1;align=center;resizeLast=1;rounded=0;sketch=0;hachureGap=4;" vertex="1" parent="1">
          <mxGeometry x="-275" y="316" width="226" height="210" as="geometry" />
        </mxCell>
        <mxCell id="2np6UyLigP0ldmkxChUn-8" value="" style="shape=tableRow;horizontal=0;startSize=0;swimlaneHead=0;swimlaneBody=0;fillColor=none;collapsible=0;dropTarget=0;points=[[0,0.5],[1,0.5]];portConstraint=eastwest;top=0;left=0;right=0;bottom=1;rounded=0;sketch=0;hachureGap=4;" vertex="1" parent="2np6UyLigP0ldmkxChUn-7">
          <mxGeometry y="30" width="226" height="30" as="geometry" />
        </mxCell>
        <mxCell id="2np6UyLigP0ldmkxChUn-9" value="PK" style="shape=partialRectangle;connectable=0;fillColor=none;top=0;left=0;bottom=0;right=0;fontStyle=1;overflow=hidden;rounded=0;sketch=0;hachureGap=4;" vertex="1" parent="2np6UyLigP0ldmkxChUn-8">
          <mxGeometry width="30" height="30" as="geometry">
            <mxRectangle width="30" height="30" as="alternateBounds" />
          </mxGeometry>
        </mxCell>
        <mxCell id="2np6UyLigP0ldmkxChUn-10" value="cust,_id(int)" style="shape=partialRectangle;connectable=0;fillColor=none;top=0;left=0;bottom=0;right=0;align=left;spacingLeft=6;fontStyle=5;overflow=hidden;rounded=0;sketch=0;hachureGap=4;" vertex="1" parent="2np6UyLigP0ldmkxChUn-8">
          <mxGeometry x="30" width="196" height="30" as="geometry">
            <mxRectangle width="196" height="30" as="alternateBounds" />
          </mxGeometry>
        </mxCell>
        <mxCell id="2np6UyLigP0ldmkxChUn-11" value="" style="shape=tableRow;horizontal=0;startSize=0;swimlaneHead=0;swimlaneBody=0;fillColor=none;collapsible=0;dropTarget=0;points=[[0,0.5],[1,0.5]];portConstraint=eastwest;top=0;left=0;right=0;bottom=0;rounded=0;sketch=0;hachureGap=4;" vertex="1" parent="2np6UyLigP0ldmkxChUn-7">
          <mxGeometry y="60" width="226" height="30" as="geometry" />
        </mxCell>
        <mxCell id="2np6UyLigP0ldmkxChUn-12" value="" style="shape=partialRectangle;connectable=0;fillColor=none;top=0;left=0;bottom=0;right=0;editable=1;overflow=hidden;rounded=0;sketch=0;hachureGap=4;" vertex="1" parent="2np6UyLigP0ldmkxChUn-11">
          <mxGeometry width="30" height="30" as="geometry">
            <mxRectangle width="30" height="30" as="alternateBounds" />
          </mxGeometry>
        </mxCell>
        <mxCell id="2np6UyLigP0ldmkxChUn-13" value="name (vchar(50)" style="shape=partialRectangle;connectable=0;fillColor=none;top=0;left=0;bottom=0;right=0;align=left;spacingLeft=6;overflow=hidden;rounded=0;sketch=0;hachureGap=4;" vertex="1" parent="2np6UyLigP0ldmkxChUn-11">
          <mxGeometry x="30" width="196" height="30" as="geometry">
            <mxRectangle width="196" height="30" as="alternateBounds" />
          </mxGeometry>
        </mxCell>
        <mxCell id="2np6UyLigP0ldmkxChUn-14" value="" style="shape=tableRow;horizontal=0;startSize=0;swimlaneHead=0;swimlaneBody=0;fillColor=none;collapsible=0;dropTarget=0;points=[[0,0.5],[1,0.5]];portConstraint=eastwest;top=0;left=0;right=0;bottom=0;rounded=0;sketch=0;hachureGap=4;" vertex="1" parent="2np6UyLigP0ldmkxChUn-7">
          <mxGeometry y="90" width="226" height="30" as="geometry" />
        </mxCell>
        <mxCell id="2np6UyLigP0ldmkxChUn-15" value="" style="shape=partialRectangle;connectable=0;fillColor=none;top=0;left=0;bottom=0;right=0;editable=1;overflow=hidden;rounded=0;sketch=0;hachureGap=4;" vertex="1" parent="2np6UyLigP0ldmkxChUn-14">
          <mxGeometry width="30" height="30" as="geometry">
            <mxRectangle width="30" height="30" as="alternateBounds" />
          </mxGeometry>
        </mxCell>
        <mxCell id="2np6UyLigP0ldmkxChUn-16" value="address (vchart(150)" style="shape=partialRectangle;connectable=0;fillColor=none;top=0;left=0;bottom=0;right=0;align=left;spacingLeft=6;overflow=hidden;rounded=0;sketch=0;hachureGap=4;" vertex="1" parent="2np6UyLigP0ldmkxChUn-14">
          <mxGeometry x="30" width="196" height="30" as="geometry">
            <mxRectangle width="196" height="30" as="alternateBounds" />
          </mxGeometry>
        </mxCell>
        <mxCell id="2np6UyLigP0ldmkxChUn-17" value="" style="shape=tableRow;horizontal=0;startSize=0;swimlaneHead=0;swimlaneBody=0;fillColor=none;collapsible=0;dropTarget=0;points=[[0,0.5],[1,0.5]];portConstraint=eastwest;top=0;left=0;right=0;bottom=0;rounded=0;sketch=0;hachureGap=4;" vertex="1" parent="2np6UyLigP0ldmkxChUn-7">
          <mxGeometry y="120" width="226" height="30" as="geometry" />
        </mxCell>
        <mxCell id="2np6UyLigP0ldmkxChUn-18" value="" style="shape=partialRectangle;connectable=0;fillColor=none;top=0;left=0;bottom=0;right=0;editable=1;overflow=hidden;rounded=0;sketch=0;hachureGap=4;" vertex="1" parent="2np6UyLigP0ldmkxChUn-17">
          <mxGeometry width="30" height="30" as="geometry">
            <mxRectangle width="30" height="30" as="alternateBounds" />
          </mxGeometry>
        </mxCell>
        <mxCell id="2np6UyLigP0ldmkxChUn-19" value="" style="shape=partialRectangle;connectable=0;fillColor=none;top=0;left=0;bottom=0;right=0;align=left;spacingLeft=6;overflow=hidden;rounded=0;sketch=0;hachureGap=4;" vertex="1" parent="2np6UyLigP0ldmkxChUn-17">
          <mxGeometry x="30" width="196" height="30" as="geometry">
            <mxRectangle width="196" height="30" as="alternateBounds" />
          </mxGeometry>
        </mxCell>
        <mxCell id="2np6UyLigP0ldmkxChUn-20" value="Orders" style="shape=table;startSize=30;container=1;collapsible=1;childLayout=tableLayout;fixedRows=1;rowLines=0;fontStyle=1;align=center;resizeLast=1;rounded=0;sketch=0;hachureGap=4;" vertex="1" parent="1">
          <mxGeometry x="125" y="252" width="183" height="209.84994506835938" as="geometry" />
        </mxCell>
        <mxCell id="2np6UyLigP0ldmkxChUn-21" value="" style="shape=tableRow;horizontal=0;startSize=0;swimlaneHead=0;swimlaneBody=0;fillColor=none;collapsible=0;dropTarget=0;points=[[0,0.5],[1,0.5]];portConstraint=eastwest;top=0;left=0;right=0;bottom=1;rounded=0;sketch=0;hachureGap=4;" vertex="1" parent="2np6UyLigP0ldmkxChUn-20">
          <mxGeometry y="30" width="183" height="30" as="geometry" />
        </mxCell>
        <mxCell id="2np6UyLigP0ldmkxChUn-22" value="PK" style="shape=partialRectangle;connectable=0;fillColor=none;top=0;left=0;bottom=0;right=0;fontStyle=1;overflow=hidden;rounded=0;sketch=0;hachureGap=4;" vertex="1" parent="2np6UyLigP0ldmkxChUn-21">
          <mxGeometry width="35.95001220703125" height="30" as="geometry">
            <mxRectangle width="35.95001220703125" height="30" as="alternateBounds" />
          </mxGeometry>
        </mxCell>
        <mxCell id="2np6UyLigP0ldmkxChUn-23" value="order_id" style="shape=partialRectangle;connectable=0;fillColor=none;top=0;left=0;bottom=0;right=0;align=left;spacingLeft=6;fontStyle=5;overflow=hidden;rounded=0;sketch=0;hachureGap=4;" vertex="1" parent="2np6UyLigP0ldmkxChUn-21">
          <mxGeometry x="35.95001220703125" width="147.04998779296875" height="30" as="geometry">
            <mxRectangle width="147.04998779296875" height="30" as="alternateBounds" />
          </mxGeometry>
        </mxCell>
        <mxCell id="2np6UyLigP0ldmkxChUn-24" value="" style="shape=tableRow;horizontal=0;startSize=0;swimlaneHead=0;swimlaneBody=0;fillColor=none;collapsible=0;dropTarget=0;points=[[0,0.5],[1,0.5]];portConstraint=eastwest;top=0;left=0;right=0;bottom=0;rounded=0;sketch=0;hachureGap=4;" vertex="1" parent="2np6UyLigP0ldmkxChUn-20">
          <mxGeometry y="60" width="183" height="30" as="geometry" />
        </mxCell>
        <mxCell id="2np6UyLigP0ldmkxChUn-25" value="" style="shape=partialRectangle;connectable=0;fillColor=none;top=0;left=0;bottom=0;right=0;editable=1;overflow=hidden;rounded=0;sketch=0;hachureGap=4;" vertex="1" parent="2np6UyLigP0ldmkxChUn-24">
          <mxGeometry width="35.95001220703125" height="30" as="geometry">
            <mxRectangle width="35.95001220703125" height="30" as="alternateBounds" />
          </mxGeometry>
        </mxCell>
        <mxCell id="2np6UyLigP0ldmkxChUn-26" value="date (date)" style="shape=partialRectangle;connectable=0;fillColor=none;top=0;left=0;bottom=0;right=0;align=left;spacingLeft=6;overflow=hidden;rounded=0;sketch=0;hachureGap=4;" vertex="1" parent="2np6UyLigP0ldmkxChUn-24">
          <mxGeometry x="35.95001220703125" width="147.04998779296875" height="30" as="geometry">
            <mxRectangle width="147.04998779296875" height="30" as="alternateBounds" />
          </mxGeometry>
        </mxCell>
        <mxCell id="2np6UyLigP0ldmkxChUn-27" value="" style="shape=tableRow;horizontal=0;startSize=0;swimlaneHead=0;swimlaneBody=0;fillColor=none;collapsible=0;dropTarget=0;points=[[0,0.5],[1,0.5]];portConstraint=eastwest;top=0;left=0;right=0;bottom=0;rounded=0;sketch=0;hachureGap=4;" vertex="1" parent="2np6UyLigP0ldmkxChUn-20">
          <mxGeometry y="90" width="183" height="30" as="geometry" />
        </mxCell>
        <mxCell id="2np6UyLigP0ldmkxChUn-28" value="" style="shape=partialRectangle;connectable=0;fillColor=none;top=0;left=0;bottom=0;right=0;editable=1;overflow=hidden;rounded=0;sketch=0;hachureGap=4;" vertex="1" parent="2np6UyLigP0ldmkxChUn-27">
          <mxGeometry width="35.95001220703125" height="30" as="geometry">
            <mxRectangle width="35.95001220703125" height="30" as="alternateBounds" />
          </mxGeometry>
        </mxCell>
        <mxCell id="2np6UyLigP0ldmkxChUn-29" value="cust_id (FK)" style="shape=partialRectangle;connectable=0;fillColor=none;top=0;left=0;bottom=0;right=0;align=left;spacingLeft=6;overflow=hidden;rounded=0;sketch=0;hachureGap=4;" vertex="1" parent="2np6UyLigP0ldmkxChUn-27">
          <mxGeometry x="35.95001220703125" width="147.04998779296875" height="30" as="geometry">
            <mxRectangle width="147.04998779296875" height="30" as="alternateBounds" />
          </mxGeometry>
        </mxCell>
        <mxCell id="2np6UyLigP0ldmkxChUn-30" value="" style="shape=tableRow;horizontal=0;startSize=0;swimlaneHead=0;swimlaneBody=0;fillColor=none;collapsible=0;dropTarget=0;points=[[0,0.5],[1,0.5]];portConstraint=eastwest;top=0;left=0;right=0;bottom=0;rounded=0;sketch=0;hachureGap=4;" vertex="1" parent="2np6UyLigP0ldmkxChUn-20">
          <mxGeometry y="120" width="183" height="37" as="geometry" />
        </mxCell>
        <mxCell id="2np6UyLigP0ldmkxChUn-31" value="" style="shape=partialRectangle;connectable=0;fillColor=none;top=0;left=0;bottom=0;right=0;editable=1;overflow=hidden;rounded=0;sketch=0;hachureGap=4;" vertex="1" parent="2np6UyLigP0ldmkxChUn-30">
          <mxGeometry width="35.95001220703125" height="37" as="geometry">
            <mxRectangle width="35.95001220703125" height="37" as="alternateBounds" />
          </mxGeometry>
        </mxCell>
        <mxCell id="2np6UyLigP0ldmkxChUn-32" value="order_payid (boolean)" style="shape=partialRectangle;connectable=0;fillColor=none;top=0;left=0;bottom=0;right=0;align=left;spacingLeft=6;overflow=hidden;rounded=0;sketch=0;hachureGap=4;" vertex="1" parent="2np6UyLigP0ldmkxChUn-30">
          <mxGeometry x="35.95001220703125" width="147.04998779296875" height="37" as="geometry">
            <mxRectangle width="147.04998779296875" height="37" as="alternateBounds" />
          </mxGeometry>
        </mxCell>
        <mxCell id="2np6UyLigP0ldmkxChUn-90" style="edgeStyle=none;curved=1;rounded=1;sketch=0;orthogonalLoop=1;jettySize=auto;html=1;fontFamily=Helvetica;fontSize=12;fontColor=default;endArrow=open;startSize=30;endSize=14;sourcePerimeterSpacing=8;targetPerimeterSpacing=8;" edge="1" parent="1" source="2np6UyLigP0ldmkxChUn-8" target="2np6UyLigP0ldmkxChUn-27">
          <mxGeometry relative="1" as="geometry">
            <mxPoint x="296" y="148" as="targetPoint" />
          </mxGeometry>
        </mxCell>
        <mxCell id="2np6UyLigP0ldmkxChUn-182" value="1...." style="edgeLabel;html=1;align=center;verticalAlign=middle;resizable=0;points=[];fontSize=12;fontFamily=Helvetica;fontColor=default;" vertex="1" connectable="0" parent="2np6UyLigP0ldmkxChUn-90">
          <mxGeometry x="0.5139" relative="1" as="geometry">
            <mxPoint as="offset" />
          </mxGeometry>
        </mxCell>
        <mxCell id="2np6UyLigP0ldmkxChUn-183" value="1" style="edgeLabel;html=1;align=center;verticalAlign=middle;resizable=0;points=[];fontSize=12;fontFamily=Helvetica;fontColor=default;" vertex="1" connectable="0" parent="2np6UyLigP0ldmkxChUn-90">
          <mxGeometry x="-0.7398" y="-4" relative="1" as="geometry">
            <mxPoint as="offset" />
          </mxGeometry>
        </mxCell>
        <mxCell id="2np6UyLigP0ldmkxChUn-91" value="Details" style="shape=table;startSize=30;container=1;collapsible=1;childLayout=tableLayout;fixedRows=1;rowLines=0;fontStyle=1;align=center;resizeLast=1;rounded=0;sketch=0;hachureGap=4;fontFamily=Helvetica;fontSize=12;fontColor=default;strokeColor=default;fillColor=default;" vertex="1" parent="1">
          <mxGeometry x="466" y="220" width="180" height="256" as="geometry" />
        </mxCell>
        <mxCell id="2np6UyLigP0ldmkxChUn-92" value="" style="shape=tableRow;horizontal=0;startSize=0;swimlaneHead=0;swimlaneBody=0;fillColor=none;collapsible=0;dropTarget=0;points=[[0,0.5],[1,0.5]];portConstraint=eastwest;top=0;left=0;right=0;bottom=1;rounded=0;sketch=0;hachureGap=4;fontFamily=Helvetica;fontSize=12;fontColor=default;strokeColor=default;" vertex="1" parent="2np6UyLigP0ldmkxChUn-91">
          <mxGeometry y="30" width="180" height="30" as="geometry" />
        </mxCell>
        <mxCell id="2np6UyLigP0ldmkxChUn-93" value="PK" style="shape=partialRectangle;connectable=0;fillColor=none;top=0;left=0;bottom=0;right=0;fontStyle=1;overflow=hidden;rounded=0;sketch=0;hachureGap=4;fontFamily=Helvetica;fontSize=12;fontColor=default;startSize=30;strokeColor=default;" vertex="1" parent="2np6UyLigP0ldmkxChUn-92">
          <mxGeometry width="30" height="30" as="geometry">
            <mxRectangle width="30" height="30" as="alternateBounds" />
          </mxGeometry>
        </mxCell>
        <mxCell id="2np6UyLigP0ldmkxChUn-94" value="detail_id (int)" style="shape=partialRectangle;connectable=0;fillColor=none;top=0;left=0;bottom=0;right=0;align=left;spacingLeft=6;fontStyle=5;overflow=hidden;rounded=0;sketch=0;hachureGap=4;fontFamily=Helvetica;fontSize=12;fontColor=default;startSize=30;strokeColor=default;" vertex="1" parent="2np6UyLigP0ldmkxChUn-92">
          <mxGeometry x="30" width="150" height="30" as="geometry">
            <mxRectangle width="150" height="30" as="alternateBounds" />
          </mxGeometry>
        </mxCell>
        <mxCell id="2np6UyLigP0ldmkxChUn-95" value="" style="shape=tableRow;horizontal=0;startSize=0;swimlaneHead=0;swimlaneBody=0;fillColor=none;collapsible=0;dropTarget=0;points=[[0,0.5],[1,0.5]];portConstraint=eastwest;top=0;left=0;right=0;bottom=0;rounded=0;sketch=0;hachureGap=4;fontFamily=Helvetica;fontSize=12;fontColor=default;strokeColor=default;" vertex="1" parent="2np6UyLigP0ldmkxChUn-91">
          <mxGeometry y="60" width="180" height="30" as="geometry" />
        </mxCell>
        <mxCell id="2np6UyLigP0ldmkxChUn-96" value="" style="shape=partialRectangle;connectable=0;fillColor=none;top=0;left=0;bottom=0;right=0;editable=1;overflow=hidden;rounded=0;sketch=0;hachureGap=4;fontFamily=Helvetica;fontSize=12;fontColor=default;startSize=30;strokeColor=default;" vertex="1" parent="2np6UyLigP0ldmkxChUn-95">
          <mxGeometry width="30" height="30" as="geometry">
            <mxRectangle width="30" height="30" as="alternateBounds" />
          </mxGeometry>
        </mxCell>
        <mxCell id="2np6UyLigP0ldmkxChUn-97" value="order_id (FK)" style="shape=partialRectangle;connectable=0;fillColor=none;top=0;left=0;bottom=0;right=0;align=left;spacingLeft=6;overflow=hidden;rounded=0;sketch=0;hachureGap=4;fontFamily=Helvetica;fontSize=12;fontColor=default;startSize=30;strokeColor=default;" vertex="1" parent="2np6UyLigP0ldmkxChUn-95">
          <mxGeometry x="30" width="150" height="30" as="geometry">
            <mxRectangle width="150" height="30" as="alternateBounds" />
          </mxGeometry>
        </mxCell>
        <mxCell id="2np6UyLigP0ldmkxChUn-98" value="" style="shape=tableRow;horizontal=0;startSize=0;swimlaneHead=0;swimlaneBody=0;fillColor=none;collapsible=0;dropTarget=0;points=[[0,0.5],[1,0.5]];portConstraint=eastwest;top=0;left=0;right=0;bottom=0;rounded=0;sketch=0;hachureGap=4;fontFamily=Helvetica;fontSize=12;fontColor=default;strokeColor=default;" vertex="1" parent="2np6UyLigP0ldmkxChUn-91">
          <mxGeometry y="90" width="180" height="30" as="geometry" />
        </mxCell>
        <mxCell id="2np6UyLigP0ldmkxChUn-99" value="" style="shape=partialRectangle;connectable=0;fillColor=none;top=0;left=0;bottom=0;right=0;editable=1;overflow=hidden;rounded=0;sketch=0;hachureGap=4;fontFamily=Helvetica;fontSize=12;fontColor=default;startSize=30;strokeColor=default;" vertex="1" parent="2np6UyLigP0ldmkxChUn-98">
          <mxGeometry width="30" height="30" as="geometry">
            <mxRectangle width="30" height="30" as="alternateBounds" />
          </mxGeometry>
        </mxCell>
        <mxCell id="2np6UyLigP0ldmkxChUn-100" value="cust_id (FK)" style="shape=partialRectangle;connectable=0;fillColor=none;top=0;left=0;bottom=0;right=0;align=left;spacingLeft=6;overflow=hidden;rounded=0;sketch=0;hachureGap=4;fontFamily=Helvetica;fontSize=12;fontColor=default;startSize=30;strokeColor=default;" vertex="1" parent="2np6UyLigP0ldmkxChUn-98">
          <mxGeometry x="30" width="150" height="30" as="geometry">
            <mxRectangle width="150" height="30" as="alternateBounds" />
          </mxGeometry>
        </mxCell>
        <mxCell id="2np6UyLigP0ldmkxChUn-101" value="" style="shape=tableRow;horizontal=0;startSize=0;swimlaneHead=0;swimlaneBody=0;fillColor=none;collapsible=0;dropTarget=0;points=[[0,0.5],[1,0.5]];portConstraint=eastwest;top=0;left=0;right=0;bottom=0;rounded=0;sketch=0;hachureGap=4;fontFamily=Helvetica;fontSize=12;fontColor=default;strokeColor=default;" vertex="1" parent="2np6UyLigP0ldmkxChUn-91">
          <mxGeometry y="120" width="180" height="30" as="geometry" />
        </mxCell>
        <mxCell id="2np6UyLigP0ldmkxChUn-102" value="" style="shape=partialRectangle;connectable=0;fillColor=none;top=0;left=0;bottom=0;right=0;editable=1;overflow=hidden;rounded=0;sketch=0;hachureGap=4;fontFamily=Helvetica;fontSize=12;fontColor=default;startSize=30;strokeColor=default;" vertex="1" parent="2np6UyLigP0ldmkxChUn-101">
          <mxGeometry width="30" height="30" as="geometry">
            <mxRectangle width="30" height="30" as="alternateBounds" />
          </mxGeometry>
        </mxCell>
        <mxCell id="2np6UyLigP0ldmkxChUn-103" value="order_payid (boolean)" style="shape=partialRectangle;connectable=0;fillColor=none;top=0;left=0;bottom=0;right=0;align=left;spacingLeft=6;overflow=hidden;rounded=0;sketch=0;hachureGap=4;fontFamily=Helvetica;fontSize=12;fontColor=default;startSize=30;strokeColor=default;" vertex="1" parent="2np6UyLigP0ldmkxChUn-101">
          <mxGeometry x="30" width="150" height="30" as="geometry">
            <mxRectangle width="150" height="30" as="alternateBounds" />
          </mxGeometry>
        </mxCell>
        <mxCell id="2np6UyLigP0ldmkxChUn-151" value="" style="shape=tableRow;horizontal=0;startSize=0;swimlaneHead=0;swimlaneBody=0;fillColor=none;collapsible=0;dropTarget=0;points=[[0,0.5],[1,0.5]];portConstraint=eastwest;top=0;left=0;right=0;bottom=0;rounded=0;sketch=0;hachureGap=4;fontFamily=Helvetica;fontSize=12;fontColor=default;strokeColor=default;" vertex="1" parent="2np6UyLigP0ldmkxChUn-91">
          <mxGeometry y="150" width="180" height="30" as="geometry" />
        </mxCell>
        <mxCell id="2np6UyLigP0ldmkxChUn-152" value="" style="shape=partialRectangle;connectable=0;fillColor=none;top=0;left=0;bottom=0;right=0;editable=1;overflow=hidden;rounded=0;sketch=0;hachureGap=4;fontFamily=Helvetica;fontSize=12;fontColor=default;startSize=30;strokeColor=default;" vertex="1" parent="2np6UyLigP0ldmkxChUn-151">
          <mxGeometry width="30" height="30" as="geometry">
            <mxRectangle width="30" height="30" as="alternateBounds" />
          </mxGeometry>
        </mxCell>
        <mxCell id="2np6UyLigP0ldmkxChUn-153" value="order_value" style="shape=partialRectangle;connectable=0;fillColor=none;top=0;left=0;bottom=0;right=0;align=left;spacingLeft=6;overflow=hidden;rounded=0;sketch=0;hachureGap=4;fontFamily=Helvetica;fontSize=12;fontColor=default;startSize=30;strokeColor=default;" vertex="1" parent="2np6UyLigP0ldmkxChUn-151">
          <mxGeometry x="30" width="150" height="30" as="geometry">
            <mxRectangle width="150" height="30" as="alternateBounds" />
          </mxGeometry>
        </mxCell>
        <mxCell id="2np6UyLigP0ldmkxChUn-169" value="" style="shape=tableRow;horizontal=0;startSize=0;swimlaneHead=0;swimlaneBody=0;fillColor=none;collapsible=0;dropTarget=0;points=[[0,0.5],[1,0.5]];portConstraint=eastwest;top=0;left=0;right=0;bottom=0;rounded=0;sketch=0;hachureGap=4;fontFamily=Helvetica;fontSize=12;fontColor=default;strokeColor=default;" vertex="1" parent="2np6UyLigP0ldmkxChUn-91">
          <mxGeometry y="180" width="180" height="30" as="geometry" />
        </mxCell>
        <mxCell id="2np6UyLigP0ldmkxChUn-170" value="" style="shape=partialRectangle;connectable=0;fillColor=none;top=0;left=0;bottom=0;right=0;editable=1;overflow=hidden;rounded=0;sketch=0;hachureGap=4;fontFamily=Helvetica;fontSize=12;fontColor=default;startSize=30;strokeColor=default;" vertex="1" parent="2np6UyLigP0ldmkxChUn-169">
          <mxGeometry width="30" height="30" as="geometry">
            <mxRectangle width="30" height="30" as="alternateBounds" />
          </mxGeometry>
        </mxCell>
        <mxCell id="2np6UyLigP0ldmkxChUn-171" value="prod_id" style="shape=partialRectangle;connectable=0;fillColor=none;top=0;left=0;bottom=0;right=0;align=left;spacingLeft=6;overflow=hidden;rounded=0;sketch=0;hachureGap=4;fontFamily=Helvetica;fontSize=12;fontColor=default;startSize=30;strokeColor=default;" vertex="1" parent="2np6UyLigP0ldmkxChUn-169">
          <mxGeometry x="30" width="150" height="30" as="geometry">
            <mxRectangle width="150" height="30" as="alternateBounds" />
          </mxGeometry>
        </mxCell>
        <mxCell id="2np6UyLigP0ldmkxChUn-137" value="" style="edgeStyle=none;orthogonalLoop=1;jettySize=auto;html=1;rounded=1;sketch=0;fontFamily=Helvetica;fontSize=12;fontColor=default;endArrow=open;startSize=30;endSize=14;sourcePerimeterSpacing=8;targetPerimeterSpacing=8;curved=1;exitX=1;exitY=0.5;exitDx=0;exitDy=0;entryX=0;entryY=0.5;entryDx=0;entryDy=0;" edge="1" parent="1" source="2np6UyLigP0ldmkxChUn-21" target="2np6UyLigP0ldmkxChUn-95">
          <mxGeometry width="120" relative="1" as="geometry">
            <mxPoint x="141" y="278" as="sourcePoint" />
            <mxPoint x="261" y="278" as="targetPoint" />
            <Array as="points" />
          </mxGeometry>
        </mxCell>
        <mxCell id="2np6UyLigP0ldmkxChUn-184" value="1" style="edgeLabel;html=1;align=center;verticalAlign=middle;resizable=0;points=[];fontSize=12;fontFamily=Helvetica;fontColor=default;" vertex="1" connectable="0" parent="2np6UyLigP0ldmkxChUn-137">
          <mxGeometry x="-0.7016" y="-2" relative="1" as="geometry">
            <mxPoint as="offset" />
          </mxGeometry>
        </mxCell>
        <mxCell id="2np6UyLigP0ldmkxChUn-185" value="1..." style="edgeLabel;html=1;align=center;verticalAlign=middle;resizable=0;points=[];fontSize=12;fontFamily=Helvetica;fontColor=default;" vertex="1" connectable="0" parent="2np6UyLigP0ldmkxChUn-137">
          <mxGeometry x="0.4636" y="2" relative="1" as="geometry">
            <mxPoint as="offset" />
          </mxGeometry>
        </mxCell>
        <mxCell id="2np6UyLigP0ldmkxChUn-178" style="edgeStyle=none;curved=1;rounded=1;sketch=0;orthogonalLoop=1;jettySize=auto;html=1;entryX=1;entryY=0.5;entryDx=0;entryDy=0;fontFamily=Helvetica;fontSize=12;fontColor=default;endArrow=open;startSize=30;endSize=14;sourcePerimeterSpacing=8;targetPerimeterSpacing=8;" edge="1" parent="1" source="2np6UyLigP0ldmkxChUn-144" target="2np6UyLigP0ldmkxChUn-169">
          <mxGeometry relative="1" as="geometry" />
        </mxCell>
        <mxCell id="2np6UyLigP0ldmkxChUn-179" value="1..." style="edgeLabel;html=1;align=center;verticalAlign=middle;resizable=0;points=[];fontSize=12;fontFamily=Helvetica;fontColor=default;" vertex="1" connectable="0" parent="2np6UyLigP0ldmkxChUn-178">
          <mxGeometry x="0.2364" relative="1" as="geometry">
            <mxPoint as="offset" />
          </mxGeometry>
        </mxCell>
        <mxCell id="2np6UyLigP0ldmkxChUn-180" value="1" style="edgeLabel;html=1;align=center;verticalAlign=middle;resizable=0;points=[];fontSize=12;fontFamily=Helvetica;fontColor=default;" vertex="1" connectable="0" parent="2np6UyLigP0ldmkxChUn-178">
          <mxGeometry x="-0.4455" y="1" relative="1" as="geometry">
            <mxPoint as="offset" />
          </mxGeometry>
        </mxCell>
        <mxCell id="2np6UyLigP0ldmkxChUn-144" value="Products" style="shape=table;startSize=30;container=1;collapsible=1;childLayout=tableLayout;fixedRows=1;rowLines=0;fontStyle=1;align=center;resizeLast=1;rounded=0;sketch=0;hachureGap=4;fontFamily=Helvetica;fontSize=12;fontColor=default;strokeColor=default;fillColor=default;" vertex="1" parent="1">
          <mxGeometry x="803" y="369" width="182" height="100" as="geometry" />
        </mxCell>
        <mxCell id="2np6UyLigP0ldmkxChUn-145" value="" style="shape=tableRow;horizontal=0;startSize=0;swimlaneHead=0;swimlaneBody=0;fillColor=none;collapsible=0;dropTarget=0;points=[[0,0.5],[1,0.5]];portConstraint=eastwest;top=0;left=0;right=0;bottom=1;rounded=0;sketch=0;hachureGap=4;fontFamily=Helvetica;fontSize=12;fontColor=default;strokeColor=default;" vertex="1" parent="2np6UyLigP0ldmkxChUn-144">
          <mxGeometry y="30" width="182" height="30" as="geometry" />
        </mxCell>
        <mxCell id="2np6UyLigP0ldmkxChUn-146" value="PK" style="shape=partialRectangle;connectable=0;fillColor=none;top=0;left=0;bottom=0;right=0;fontStyle=1;overflow=hidden;rounded=0;sketch=0;hachureGap=4;fontFamily=Helvetica;fontSize=12;fontColor=default;startSize=30;strokeColor=default;" vertex="1" parent="2np6UyLigP0ldmkxChUn-145">
          <mxGeometry width="30" height="30" as="geometry">
            <mxRectangle width="30" height="30" as="alternateBounds" />
          </mxGeometry>
        </mxCell>
        <mxCell id="2np6UyLigP0ldmkxChUn-147" value="prod_id (int)" style="shape=partialRectangle;connectable=0;fillColor=none;top=0;left=0;bottom=0;right=0;align=left;spacingLeft=6;fontStyle=5;overflow=hidden;rounded=0;sketch=0;hachureGap=4;fontFamily=Helvetica;fontSize=12;fontColor=default;startSize=30;strokeColor=default;" vertex="1" parent="2np6UyLigP0ldmkxChUn-145">
          <mxGeometry x="30" width="152" height="30" as="geometry">
            <mxRectangle width="152" height="30" as="alternateBounds" />
          </mxGeometry>
        </mxCell>
        <mxCell id="2np6UyLigP0ldmkxChUn-148" value="" style="shape=tableRow;horizontal=0;startSize=0;swimlaneHead=0;swimlaneBody=0;fillColor=none;collapsible=0;dropTarget=0;points=[[0,0.5],[1,0.5]];portConstraint=eastwest;top=0;left=0;right=0;bottom=0;rounded=0;sketch=0;hachureGap=4;fontFamily=Helvetica;fontSize=12;fontColor=default;strokeColor=default;" vertex="1" parent="2np6UyLigP0ldmkxChUn-144">
          <mxGeometry y="60" width="182" height="30" as="geometry" />
        </mxCell>
        <mxCell id="2np6UyLigP0ldmkxChUn-149" value="" style="shape=partialRectangle;connectable=0;fillColor=none;top=0;left=0;bottom=0;right=0;editable=1;overflow=hidden;rounded=0;sketch=0;hachureGap=4;fontFamily=Helvetica;fontSize=12;fontColor=default;startSize=30;strokeColor=default;" vertex="1" parent="2np6UyLigP0ldmkxChUn-148">
          <mxGeometry width="30" height="30" as="geometry">
            <mxRectangle width="30" height="30" as="alternateBounds" />
          </mxGeometry>
        </mxCell>
        <mxCell id="2np6UyLigP0ldmkxChUn-150" value="name (varchar(100)" style="shape=partialRectangle;connectable=0;fillColor=none;top=0;left=0;bottom=0;right=0;align=left;spacingLeft=6;overflow=hidden;rounded=0;sketch=0;hachureGap=4;fontFamily=Helvetica;fontSize=12;fontColor=default;startSize=30;strokeColor=default;" vertex="1" parent="2np6UyLigP0ldmkxChUn-148">
          <mxGeometry x="30" width="152" height="30" as="geometry">
            <mxRectangle width="152" height="30" as="alternateBounds" />
          </mxGeometry>
        </mxCell>
      </root>
    </mxGraphModel>
  </diagram>
</mxfile>
